<mxfile host="www.draw.io" modified="2020-05-13T23:18:47.626Z" agent="5.0 (Macintosh; Intel Mac OS X 10_15_4) AppleWebKit/537.36 (KHTML, like Gecko) Chrome/81.0.4044.138 Safari/537.36" etag="VOUWpVRlx0lnqqNwp-4w" version="13.0.9" type="github">
  <diagram id="6UR49E0zUCKmJUAcSpAE" name="system-architecture">
    <mxGraphModel dx="850" dy="542" grid="1" gridSize="10" guides="1" tooltips="1" connect="1" arrows="1" fold="1" page="1" pageScale="1" pageWidth="1100" pageHeight="850" math="0" shadow="0">
      <root>
        <mxCell id="DVUXWdo4HBKXd4HaU4E6-0" />
        <mxCell id="DVUXWdo4HBKXd4HaU4E6-1" parent="DVUXWdo4HBKXd4HaU4E6-0" />
        <mxCell id="LEx7qD2o24YmSId129aY-12" value="" style="rounded=1;whiteSpace=wrap;html=1;fillColor=#dae8fc;strokeColor=#6c8ebf;" vertex="1" parent="DVUXWdo4HBKXd4HaU4E6-1">
          <mxGeometry x="640" y="690" width="360" height="150" as="geometry" />
        </mxCell>
        <mxCell id="IR8gEMqMYILpRB2Ss4oT-7" value="" style="rounded=1;whiteSpace=wrap;html=1;fillColor=#fff2cc;strokeColor=#d6b656;" parent="DVUXWdo4HBKXd4HaU4E6-1" vertex="1">
          <mxGeometry x="600" y="360" width="250" height="135" as="geometry" />
        </mxCell>
        <mxCell id="IR8gEMqMYILpRB2Ss4oT-0" value="Actor" style="shape=image;html=1;verticalAlign=top;verticalLabelPosition=bottom;labelBackgroundColor=#ffffff;imageAspect=0;aspect=fixed;image=https://cdn0.iconfinder.com/data/icons/emoji-3-5/64/hand_phone_smartphone-128.png" parent="DVUXWdo4HBKXd4HaU4E6-1" vertex="1">
          <mxGeometry x="70" y="375" width="50" height="50" as="geometry" />
        </mxCell>
        <mxCell id="IR8gEMqMYILpRB2Ss4oT-1" value="" style="outlineConnect=0;dashed=0;verticalLabelPosition=bottom;verticalAlign=top;align=center;html=1;shape=mxgraph.aws3.machine_learning;fillColor=#2E73B8;gradientColor=none;" parent="DVUXWdo4HBKXd4HaU4E6-1" vertex="1">
          <mxGeometry x="720" y="375" width="76.5" height="93" as="geometry" />
        </mxCell>
        <mxCell id="IR8gEMqMYILpRB2Ss4oT-2" value="" style="outlineConnect=0;dashed=0;verticalLabelPosition=bottom;verticalAlign=top;align=center;html=1;shape=mxgraph.aws3.athena;fillColor=#F58534;gradientColor=none;" parent="DVUXWdo4HBKXd4HaU4E6-1" vertex="1">
          <mxGeometry x="610" y="392" width="76.5" height="76.5" as="geometry" />
        </mxCell>
        <mxCell id="IR8gEMqMYILpRB2Ss4oT-5" value="Google / O365 Calendar&lt;br&gt;APIs" style="verticalLabelPosition=bottom;aspect=fixed;html=1;verticalAlign=top;strokeColor=none;align=center;outlineConnect=0;shape=mxgraph.citrix.calendar;" parent="DVUXWdo4HBKXd4HaU4E6-1" vertex="1">
          <mxGeometry x="690" y="700" width="75" height="100" as="geometry" />
        </mxCell>
        <mxCell id="IR8gEMqMYILpRB2Ss4oT-6" value="Host" style="verticalLabelPosition=bottom;html=1;verticalAlign=top;align=center;strokeColor=none;fillColor=#00BEF2;shape=mxgraph.azure.user;" parent="DVUXWdo4HBKXd4HaU4E6-1" vertex="1">
          <mxGeometry x="90" y="715" width="47.5" height="50" as="geometry" />
        </mxCell>
        <mxCell id="IR8gEMqMYILpRB2Ss4oT-8" value="Going Back to Work &lt;br&gt;Scheduling Services" style="text;html=1;align=center;verticalAlign=middle;resizable=0;points=[];autosize=1;" parent="DVUXWdo4HBKXd4HaU4E6-1" vertex="1">
          <mxGeometry x="665" y="500" width="120" height="30" as="geometry" />
        </mxCell>
        <mxCell id="IR8gEMqMYILpRB2Ss4oT-9" value="" style="shape=flexArrow;endArrow=classic;html=1;startArrow=block;" parent="DVUXWdo4HBKXd4HaU4E6-1" edge="1">
          <mxGeometry width="50" height="50" relative="1" as="geometry">
            <mxPoint x="727" y="540" as="sourcePoint" />
            <mxPoint x="727" y="690" as="targetPoint" />
          </mxGeometry>
        </mxCell>
        <mxCell id="IR8gEMqMYILpRB2Ss4oT-10" value="Calendar Event&amp;nbsp;&lt;br&gt;with Admission Barcode" style="shape=image;html=1;verticalAlign=top;verticalLabelPosition=bottom;labelBackgroundColor=#ffffff;imageAspect=0;aspect=fixed;image=https://cdn0.iconfinder.com/data/icons/free-e-commerce-linear/1024/scanning-barcode-128.png" parent="DVUXWdo4HBKXd4HaU4E6-1" vertex="1">
          <mxGeometry x="240" y="406" width="49" height="49" as="geometry" />
        </mxCell>
        <mxCell id="LEx7qD2o24YmSId129aY-2" value="" style="shape=flexArrow;endArrow=classic;html=1;strokeColor=#000000;startArrow=block;" edge="1" parent="DVUXWdo4HBKXd4HaU4E6-1">
          <mxGeometry width="50" height="50" relative="1" as="geometry">
            <mxPoint x="190" y="740" as="sourcePoint" />
            <mxPoint x="640" y="740" as="targetPoint" />
          </mxGeometry>
        </mxCell>
        <mxCell id="LEx7qD2o24YmSId129aY-3" value="&lt;a href=&quot;https://support.google.com/a/answer/1033925&quot;&gt;Populates API Data Model&amp;nbsp;&lt;br&gt;(Building, Features and Resources)&lt;/a&gt;" style="edgeLabel;html=1;align=center;verticalAlign=middle;resizable=0;points=[];" vertex="1" connectable="0" parent="LEx7qD2o24YmSId129aY-2">
          <mxGeometry x="-0.2053" y="-2" relative="1" as="geometry">
            <mxPoint x="41" y="-22" as="offset" />
          </mxGeometry>
        </mxCell>
        <mxCell id="LEx7qD2o24YmSId129aY-5" value="" style="aspect=fixed;pointerEvents=1;shadow=0;dashed=0;html=1;strokeColor=none;labelPosition=center;verticalLabelPosition=bottom;verticalAlign=top;align=center;fillColor=#00188D;shape=mxgraph.azure.laptop" vertex="1" parent="DVUXWdo4HBKXd4HaU4E6-1">
          <mxGeometry x="70" y="455" width="50" height="30" as="geometry" />
        </mxCell>
        <mxCell id="LEx7qD2o24YmSId129aY-6" value="Reservation &lt;br&gt;Request" style="html=1;verticalLabelPosition=bottom;align=center;labelBackgroundColor=#ffffff;verticalAlign=top;strokeWidth=2;strokeColor=#0080F0;shadow=0;dashed=0;shape=mxgraph.ios7.icons.calendar;" vertex="1" parent="DVUXWdo4HBKXd4HaU4E6-1">
          <mxGeometry x="550" y="660" width="30" height="30" as="geometry" />
        </mxCell>
        <mxCell id="LEx7qD2o24YmSId129aY-7" value="" style="shape=flexArrow;endArrow=classic;html=1;startArrow=block;" edge="1" parent="DVUXWdo4HBKXd4HaU4E6-1">
          <mxGeometry width="50" height="50" relative="1" as="geometry">
            <mxPoint x="640" y="670" as="sourcePoint" />
            <mxPoint x="140" y="470" as="targetPoint" />
          </mxGeometry>
        </mxCell>
        <mxCell id="LEx7qD2o24YmSId129aY-8" value="Apple Business &lt;br&gt;Chat Request" style="shape=image;html=1;verticalAlign=top;verticalLabelPosition=bottom;labelBackgroundColor=#ffffff;imageAspect=0;aspect=fixed;image=https://cdn0.iconfinder.com/data/icons/apple-apps/100/Apple_Messages-128.png" vertex="1" parent="DVUXWdo4HBKXd4HaU4E6-1">
          <mxGeometry x="590" y="560" width="40" height="40" as="geometry" />
        </mxCell>
        <mxCell id="LEx7qD2o24YmSId129aY-9" value="Message with &lt;br&gt;Admission Barcode" style="shape=image;html=1;verticalAlign=top;verticalLabelPosition=bottom;labelBackgroundColor=#ffffff;imageAspect=0;aspect=fixed;image=https://cdn0.iconfinder.com/data/icons/apple-apps/100/Apple_Messages-128.png" vertex="1" parent="DVUXWdo4HBKXd4HaU4E6-1">
          <mxGeometry x="160" y="500" width="40" height="40" as="geometry" />
        </mxCell>
        <mxCell id="LEx7qD2o24YmSId129aY-13" value="" style="shape=image;verticalLabelPosition=bottom;labelBackgroundColor=#ffffff;verticalAlign=top;aspect=fixed;imageAspect=0;image=data:image/png,iVBORw0KGgoAAAANSUhEUgAAAMgAAADICAYAAAHaX54IAAAABGdBTUEAALGPC/xhBQAAIL1JREFUeAHtXQt8FNXVz/uxCeQFCSCvJCQQ3m95SBDKG0Ue8rAoilqsrT+1tqBC+5Vaxc9qW1utln7V1iIW8FepL0BqSFEEgRAJIQmPIKAgEEgg72STbL7zD3NxHGZ3Z3d2dybZc36/s/fec8+995z/vXdmdubOnYAAJkbAFQRSe/Rs1qofpFVRrudKA/JybsVzcnJCtRQM1KLkzPITp085rMcpXKNH3PikI0M6JiX+3FE+8hxaAAW9XqAOp55ASS85bSQ4ONjhUE1LTnGYDwOdNnLsyxMOdWw2W0Df9N5ljrx1WIGjgvK8wmNH4+VpZVxTI46G6MChQ3orK+V060PA6Zh34FIy5RXK8jeIuNroEplo8LBQpHCpFD9HodwYxIuIBxNjpM0hBqnVfTWHfxkBRsAzCOC87+zcr6ulCePGzXO1Ac1Tf+3atS0Xcp26dt2Jk1j//v0HarXW6SVRc3NzcK+eyY2OKnR05kQ5p404g8ZZA2hEM1xQVlJQkLbi2rSUtUtpXA5pIV2NaGkAOrobcdZnmhpx1rHBGvpFkyd0PWwXmWMnv3Q6Qu0W5gxTIpAns0p+nTVEJldG5XrKvGtpofQTksgb2XFN47sXdjJxSxTl31IKOc0IMAKMQGtGICOtd7WWawJXfQxxtYC7+sJ4q7U+oH279u+4W4+9cj5xJD0ltbGpqanFBmcXV/YMdSb36MWSQF3eaGRE5In8I4W9B2b0PV5TW5ssz0M8PCy8pvD40Sil3NW0RxxRc8AVQ/oNGnjTe++995krZZS6uh3R64Snhpqma3ml955KBwbqxvGaKYY6Qv/ZrxmiN6Lbkf59M/rpMQJDk45quj3ySN9m9EovszZY4/Q4pHeu6O4RGF9UfCz+hm5df+auI3qdQLsecQQVfbJr129hkPJPfmxszL9//MjDlsED+qdT3nfuvnTv0f1uTziB9pkYAUbAfQRWUdH7iMVDM9T0BjGO+bjHIr/PQsmAauL/EC9FQkafUhxlwJ1k8isUP0u8mxh5dxKDll0NWn4hf4V4jEwmt0cmdh5FwSRJbaJCPUyRFkmxFsPefUqLULQTyh0WKh4554nKOGQEGAFGgBFgBBgBRoAR0I6AvYs67TW4oDlr2rSBjQ2N57t2vaG+5OLFXS4Udarqsf/szlqidaMNBUVHWi79+w0Y8A9n+qbMv/mmzEdw/0qwN4z0SY98/fVXLwrjU3ul3iHingx94ogwOKlTp99uz8py+x+eqMdnYXZ29nceID3++OMxovElS5YkzJw0KUOkPRV67O/j0EGDtpVfKZ8qNyyQloV1695zWlhYUOCJE19uVbtp/cP5t0cvf+EF/N/XRR5xBEvmtS7hUrN2wk1ju/11/fozanlaZbodGTNy1DMXLpxfqbVBpR4MKHbyLoeyjFpa9wkxLCQkS61irTJP3fvVddSiMa+rRxM7JT2q1WFneroMGT1y5JKSCyVvOGvEXr6negP16+qRC+cvuO2EPefcletypGv3bk7fh3JkmN6hKa9blyOpndP+Iq/M1Xi/3n1KXS1jT1/XHEGlep+zF586GUSPqXGzWhfp6hFdLUuFaUm57cknn0zQW5duR9q1a/exXiM2vfXPS3rr0O3IwcP5k/UaoXyA6k59uh1Bo5GRkXhDym2iNxN1z1WPOHL4SFEXd72wWKJOultWXk43EvLK3DmCeers7pEeEc7ctfSea3+gIMPYT07uNfqvf/9baEKHDr8TeiL0lBOiPg4ZAUaAEWAEGAFvIODoP0JnRYNC197aFIW6w2Qt5dq7PzzMYUmVzKUkWyHJ36AQhsrv2cKRkZKcgpZ8sczvGUpj5Q/S8lunuPWEBfKoC4tmwonlNF9KoLycnqYE7puhnF1H7F2ivE6FniMGHbwaXPe7nyTyazXUNZMYK39gJNKPEAuCE6K98xSvJ5Y7KrbESCa5vGc7UvoysW6aKNUgX+4EkdwJe40Iw+3lJ0oZ7e0pSPJ2TvI5mxFgBBgBRoARYAQYAUaAEWAEGAFGgBFgBBgBRsAhArrXaTms3SSZW7ZsCf/q5Mm7uiQmjjtz7tw+k5ilaoaWe2uqBc0uHNS//6GqisoBAbJdGBKTEu/es2/fP8xse5vrkP59Ms7V1tZe9z4p9kg83gq2ymtTHWJv0TH2KqHO8MhiMG/PLme3+r3dvsfqH5DR97DaCvD4hPg3aWUe9Yn+lXkeM9ZBRW2mQ6xWa8veMpgNlkjLmQmTJ3XCOp39ubl3OfDfdFmmPWThyuh/Vq16q6K8Yq6NthUTD4oBeGhoaGV8h4SVu3bv/pPayMcK4szRY394qfTScw0NDe2UL3jgfBIeEVHcKyV50b8//PCAmXrFVB1SUFAQNnfWbfWNjQ53YfY4fujkIUMGj3l78+Y9Hq/cxQpN0yEZael01LGK3TpcdMMz6h07dvzX5zn7b/dMbe7VYooOoVXkdFQRByX3HNFTavjQIX03bt6MDzcYToZ3SO/UXnSEajTkjkFoSEjAkRPFhmMgHwWGXmXNmjULvWFIZwCEouLj8qVIclwMixvaIYkdOthb9+V1QHClRSdzrBczFRnaIfl5h6JMhYYJjDG0Q8LCQqcZhQH+1U8cP366Ue3ba9fwE5rRV1j9Bw/q9+677xbaA8jXckNnCJyNiop639dOy9s7fDCvgK70sMrbFGT4DAEK9u7SGoFQTEzMttxDeYYdygyfIQB97uT5sUaAr9Ym3R1+WU3uK5kpZgicnT9/fq/cffuP+8pxtXbiEuJX5eTmrlHL85XMNB0Chzdt2hT25PIVeHfE59SrV+/pH2V9tM3nDSsaNFWHCNto34qzdXV1br89LurREuIPIj7mq3YbX0t5T+uY4hyidKrg6JEb5i1c0B5geY3oZmZKcsqDeM5uls7wmq+ernjowEEbcCWGLQoQDsjIOHTL1Kl4P9Ah3XPPPZ2o7Hv4ygTKpRMP7j8gh76r6WzTbYf1ciYjwAgwAowAI8AIMAKMACPACPgcAXwpCOwq5VABbJXhiMQ+IuWkdL8jRZU8by5b+SW1h/qPydr1ZnuyZpxH8eygUqaG7UPeJIaBv5HkajLsBY8NX/D3WwC/QNIXgdzJMyTEI96lxGIzF2wIA+pLDF2w2GpElEUI4BAOIQaNIUYaLLaNy5fSWRSC0AbylXurLJPyKGihCVIIXWxOg1AQtipF+m+SAHGw1+6RlVDlWKmBlSJiE0uAP4sYhMZBajLRIQ2U/43EQh9lQPI09NCOWodMkXRfpVCQKCtCyEUcobLNCpLVEKcRg/CgDHp3ISEjZYeILFH3HBKslYTYhhJykTeM4sDCK4TbDWWymtEh0cRoEAasJ7YSg9RkokN6UD6A2Eh8nFhOqOcdYhzehFMdpPhbMtkhim8i/lBiCq7pi3JyGTquQGIADILej6VQpH9BkYvEoyCQEXRxFMCMuE2Si3ZEh6wkOQbsFmKRhxmO+H3EPiOAP1HRmppMocJJRoARYAQYAUaAEWAEGAFGgBFgBBgBRoARYAQYAUaAEWAEGAFGgBFgBBgBRoARYAQYAUaAEWAEGAFGgBFgBBiB1orAjMkzBi+YO+9ka7DflK9Fewq4wQMGvF5dVb0UO//gjd7WsLM11um2Obr11ltvOnK44NPKCvma8NbhphdfBDcGgKmTJ99fkHfoU+Uu1/Rx9HJjLHKt1TbVIQsXLkwvPnb8/2gjgOtQiI2JfeE6oQkF11tuQiO1moQNAppoF2wloYN4M34lKl5Ojxk56mm1zkCz8fFx61rL9hltZobYmx0hISHNR08Ut5pDc6sx1NEEw7ZOarODTuQB6zduUH7z3FFVhucZtomxJz2/fPnywCtlZQ/I66SZEfDWpo1hw4cPx6txrYbaxAyhP1PiRc4AzIqEhA6/osNUYGvrjFYzamij/uDnnnuu3ermZtUBRIes4PnTp3eEntIpyGhL8969k5MH3nHHHUkB9G0RpY6Z0qY1bsK4cbeVlFx8zVpfn2CTfTkBMyAyMiIrY8CA+zds2HBKDczFixd3pe1fX6ePg01WnlvgcDAdzujK6w+79+37idmuvkzXIbNnzx5ceCj/CyWQasCjc2JjY17ukZr6VGJioi13//5nSi+VPqClLOrD/5MOHTqu+Txn3yq1+o2QmapDRo8c+VLJhZKHfA2ExRJ5Kr+oKNnX7aq1Z5oOuXH4yNcuXSy5V81IX8iiLJbjh4oK033RlqM2VE+Sjgp4I2/GlCmTjewM+FRXX5/26KOPGr6hsylmiNFbjdP+86cOFRaY4pBl+AwZNWLEX5S3yr0xC+3VaYmMPGuWzoCNhs8QI2dHMDZRNtn3cQ2dIdOnTx9i5OzolZ5m6Cfy1Gbtdf9s1ZS8JWtnsaytr6/v7a36HdWLZ+x7c3IWOtIxIs/QGVJTUzvFCKfRZmSkJdeoth21a2iHNNtsEY6M82YefcAY+3uZjgztEPoCgmGAWKIiDhvWuIOGDe0Q+uqzA9O8m1VZWWnId0qceWVohxj5/Vu6s2j4bRK1zjG0Q7z6fRA1b2UyurqbJ0uaJuq3HVJXWzfVNL0gM8TQDqHnGdgB1BDCM5NFt93WzZDGHTRqaIdERkRud2Cb17Pyio4Uer0RFxswtEPiE+L+7KK9HlWnx8PRo0eM+JVHK9VZmaE3F+kqKzCtZ7JN7Dqs0xe3i9/QreviT3btesvtCjxY0NAZggUGIaGhYjdsD7rlWlVnvz6zftSwEX9xrZR3tA3tELgUFxe/2juuuVbrxUsXf0AfKW6efevs2a6V9Ky24R2ye9/nz3nWJfdra2xsDIgMtO1xvwb9JQ09hwjz+/XJOF1XW9tdpI0KsfwUKx6Nah/tGj5DYETvvhmZCI2mxI4dHjPaBkNHg9z5PmlpVxqsDdfW6MrzfBE3y0uhppghAHzU2LF9fAG8vTY6JiU+bC/Pl3LTzBA4PWTAwJ0VFRU+P3zRYwDbkeLjhj7OFp1umhkCg77IPzQe63V9TSNGj8K3sUxBpuoQIHLjsKEpvkQmMSnx9+vWrcOnikxBvh+OTtw+VFh4pW+fjKCqqqrxTlR1Z0dERpzPzcszbKGFmgOmOofIDRw5dNiO0tLSCXKZJ+NmfRnUdIcsAfq+3AMTEzokvE1vPAnRdWF4WFhJYsekh0aPu6lL8amToTNm3RqTnJI8O9JiOYh3P+xReER4lVlO4kob7Vut1DQoPXvmzGFHjx3fSf/ko9A14eHhDe3bx/xueW7OqgWBgdfvEiCzM3P0TfeWll5aY22wJkFMFwwNSYlJD+3cvcsUNxJlpnKUEWAEGAFGgBFgBBgBRoARYAQYAUaAEWAEGAFGgBFgBBgBRoARYATMhYD9J0aO7bQ5zg6IpnzUDc4hduXx8kek/31ib1A4VVpGDLvEa3CfULwHseE0gyy4QjzTDUvgkCPCIrliSQGPbl1ZFR/lqGKdebC7o1SH8AHrf1M11Cv0Nai6p1JAxTCSi2TF0Si2Yq3RIIMKntahDEadnOQdgkfLYntXuVOik/IpH/IsqYJ1FOKdQfBeYuSdIRZ0kiKQfSAJ+kppyBIlGV6TRvo+KS0CyASNpQiesqJD8D4J8v5EDFpEjDSOBPjqxHIpLS9PIs+SqFyEqF3E76I4gAE5kom835OefC0tOgR51VIYTiFI6COODoH8LBJEu68GLe2iM8AXJBke70J3DvEWSVZLITpbHD4B3KfEa4iXEYPELL2a+m77QraHImIrQmHfJilzEoXIB4m8qykP/2JkVEh14tMPYoGEaBTOi/VNjmQA4xviUuKNxILkM6QnCXFoBIm6EBczBHZgRqZBSCSfIWJQ5JEcC+CwwSX00SbKZxBPIUa9rxKDsIMB0gelOAXXSN6+EALwVCkh8h+kNOLg04o8Kek8EKA61wwIWEFK7YjRYHviJ4nlBEfPyQUUV5NhlHYhTiBeSKxGp0iIDpJTmCyB9sHHZDJ70aOU8TQx2kQdRcTbiTHAMBtgMw6PSONlHSuxPbpEGRY7ma+QHHXE2cn3uBgbk4gORMPCcHTQVmIcg3sSg+zJkIcO2SCF8pMxOgCHq3eIUf5VYhBmCs4ZKCdv88eUhh7I0QxBPvRelkKkDxHjEPOhxHMp/Ip4NbFyJQvsgF07iEV7ajMEeX8iBg6niUGw90hLzIc/MER0lGhWTSbyEHaRJzTEE1V01GQqatdESddiVyPBFCjtxgWLPcKMdEbdnCn4Il+MGnlbajJ5PscZAUaAEWAEGAFGgBFgBBgBRoARYAQYAUaAEWAEGAFGgBFgBBgBRoARYAQYAUaAEWAEGAFGgBFgBBgBRoARYAQYAUaAEWAEGAFGgBFgBBgBRoARYAQYAUaAEWAEGAFGgBFgBBgBRoARYAQYAUaAEWAEGAFGgBFgBBgBRoARMAcC2HeMqbUi0NwcOH/27IyvznxzR21t7ex6a10fW5MtpKmpKSAhPm7l/oMHn22trpnFbuzBydSKEFi9enX89q1bV14pu/KgNTnFkqvy3VN8Xzs0LEy5MWEr8tI8pvIEMU9f2LWkmc4UE8ePv6PkQsnadX/7u6NNIFvqwEd/w8Oj9tqtkDM0I8CXWJqhMkZx6ve+N+306a82N1gbIlp2ANZgRlRU1Gd5BYczaaKI3bo1lGIVNQSUW9Sq6bDMAAS2bNkSPnzw4Ozi4hNbGxq0T47Q0NDatNSU+3lyeKbT+AziGRw9Wsu9997bZd/uPbm1NTVJAXS5pJVocjT07NF9/LasLGx6zuQBBPgM4gEQPVnFsmXLYj7/bPceuivl0uSIiIw4N3r4sFSeHJ7sjauf4PFsjVybLgQO7Nv3orW+vrvWSoKDggM6Jia+sOvz3Svosoo/dqAVOI16fAbRCJQv1BbPndu1urpmLt21ctocbuUmJCSsf+nPr0R/tnfPcp4cTiFzS4Fv87oFm3cKlVVWpjbbbHa/1xMUFBQQERF5Mqlj4hP/2bnjbUyKqVOnescYrrUFAZ4gZhoIzSEVoaFhJTTwg4KDguqCQ0MuhIaEHIyJjc3qN3Dgxy+99NJFmJtfVED/3bX/eTeTi63NFkbZzR5b3dwc9NV993U6WVw8vKK8critqalfo62pW4PVGhUSEhLd1GSjwR5yISIivCgsPHx3565dP9+0adNpGti6n03QJVjQ4ttv73nqzJkxdTV146yNDYNtjY09mpqbY5saG0NwiUY2NNEZpzIoMOh8aFjosQhL5IH20dGfjsnMzKWn8VVuuu13xXiCaOxyGnTBEzIz55eVlf20vq5+eGNjo8aS31WjM0NASGjoZUuk5aO4+Nh/Tpo2Lfvxxx+v/K7WtynKi6E/7jfT0pJF1bU1k5saGhKabPrmGM4+NIGs9EDx3U5Jic99uH37gW9b5JgcAZ4gcjQUcRypv5d58wMXLpx/tr6+Psb5X2dFBRqTGLD4f0F/vC8EBgWepU+4dqIJ2MVGEwFnA28T2rZEWXb1SUu7b+Pmzce83V5rqp8niEpv0aVQ2PNr/ve18oryO7Ey1p8oOjr6YmpK8rR33n8/15/8tucrTxA5MrQoMHPsuFXnz5/7tb9NDDkMiMfGxf53wqRJt7zwwgv4NLnfEt/Fkrr+iQefiNvSr//us9XVffx2NJDj4eHhFZ27dF7xcXb2X+nSz79Onyodz2cQAmXevHlphYfyc6xWq91nECrYtRlRIC0TDgsLLeyVmjL3vW3bjrYZxzzgiN9PkEWLFvXMO5B7kCZHjAfwbHVVYPVvjx7dZ36UlZXd6oz3gcF+vdSkoKAgrCj/8GZ/nRx0m/eLp370TAJPDvszLdh+VtvPyd2795GKisq7fXEr1WxoRkVHH/j56l+OXnD/gnqz2WYme/z2DEJPky2VlVU/wrMGfyNcVmWkp31/wYIFVn/z3VV//fYMYrPaxlVUlD/qb2cPPJRsF93ujf/s/O/fXR0s/qjvt2eQsLCQTH88e+CpeWRE5HZ/HOzu+Oy3E6S0rPSX/jhB8AD0fMm5r90ZLP5Yxm8nSPnly365ZBwvWnXu0iXJHwe7Oz777QSZPHXqFdotxB3MWnUZnDXprcUxrdoJHxrvt3/SQ2nlLD3/mO1vf9IxtsjnlPkLFryek5NT58Ox1iqb8tszSHRMzAH6w+reSx2tsqu/NZpe6upM2wr9jmaK36+k+BYV9ZjfAkRH0eABGRl7a2vrhqlD07alQXS7Ny4+4fl9uTkr2ran+rzz2zMIVqpGWSxv4ranP5KNXsQqKytdPrj/gO10qRXqjxho8dk/R4eEzJgh4/9Bu6Cf1wJUW9TB/6/KysrJixcuqhs3Zsw9bdFHvT757SWWAG7UiBEPl14q/YM/PhMRGIgwLCyssXOnLsuzPsn+I51h/W8NjgBCFvr9BMF/kYF9+31WU1NzowwXv47ispMuP4sSOyat/Cj74/f9+cUpv77EwixA5/dK6b2UFvDxLU/psICzaWVVVcaJkyc2pyenNt4yY8ZqKcvvAr8/g4gev3nMuDu/Of/NOn9/F13ggZAOHgExsTGbcr74YhHFvb+9irxxk8T9/gwi+uG/uz99My4u/ml/vaslcJCHkRZL4eIlS+7x18kBLPz2Sbp8IIj42XPfZPdOT+9M/0eGC5m/hhHh4WfHZI4btWbNmgp/xQB+8wRR9P6Zs2c/SO+V3r6utma0X15TEB6RERFnJ44dM+TV1167pIDH75I8QVS6/Mw3Z7cP6j/oYlV11Uw8K/Anio6Kypu3aOHg37z4Yrk/+W3PV/6Tbg8Zks+55ZZBR48f31VfWx+t9QOaDqozdRb+kNNmca/dknvbstWBq/kZiNRbPEGcDFssw3jgBz94v/zylalt9WxCt7ibuvfoPnt7VtYHTuDwu2yeIBq7fPKECbO+/vrMv+gdkjazGyU6P7pdu92L714yZfny5X69xai9YcATxB4yKvLs7OyQJ5Yvf5OWpixs7WcTOmvUd+nebc6OHTu2qrjKIgkBniBuDIXnn38+ceP69evLr5RPwqpYPYQOCKSlHfgPQN/suEzJMnottrblGyA2Wwx9FKcDfZYtEk+3dU9KspUWZ9o6den8WPbOnVhvpc94PY63krI8QXR0FA3YkPFjxz5x6WLpk9YGq8XZAMY7GMEhIY20QfSnsTGx67ql9Ny2bt2681oHKv4PrVyxYsSV8oq7qiur5jQ0WJO0fEwH76FHRUXvv6FHt0c++OAD/oa6C33OE8QFsByp0uQInDt3blpddfXNdKBeU3zseMKQYUNPl14sWU0P3Q489Nhjx2bMmOHxXQzR7sMPP9yhKD+/d3VtbXpleXk87IyNib8QHdc+7+mtTxcNDxzufy/fO+oszmMEGAFGgBFgBBgBRoARYAQYAUaAEWAEGAFGgBFgBBgBRoARYAQYAUaAEWAEGAFGgBFgBBgBRoARYAQYAUaAEWAEGAFGgBFgBBgBRoARcBEB7DLT1cUyZlPvRAa1N5tRZrUnigzDOxB4cw0h0t6mPGoA7XXW0VCMVEcVhRskzpVkqPspYm/QbqoU9S/zRuVerHOtZDfea3+TeAcxdkaBL3OIBeFlLchShUBHmExlPyFepaMOw4u+SBYAEDiB8A/ESsJAHkgcRnwD8RTidsRK0qpnb4J0owqnE+MDlmr1y9sTE6RYLpTi+RTCl75SOppC2N/yopIkQ5BO3EeWRhRbvfYmziTuTqwkHH1RV7iUgRBpyCOIYftYYguxGkEfu9TPJE5TUyCZMxtQLI54NPEQYnttUVYLzaVf4PHW1eS1X/QnNp5rIhZ17KE4dDFBehKjr1OI1Qi4jiNGn6Hv5BRLiUXEqOsjYmDklTMvwPIWweBHiHE0eYZ4G/HDxEpnf08yDOpaYugPJj5OjCPQAGJBWvWEvgjxiTEACTswYAFsCTHas9c5lHUdYfI+Tdyf+D3iQmLQfGLY/1MkZLSP4odk6QMUx2B5gDiBGJjArreJBT1PEdR1syRAiPQ54i3Eo4hfIsaRGoNNEAYTfKojRv04uv6TGPWvJRbkzIZbSRFldhFjgmFCHiWG3fK+oOQ16iDFTl6TXI1YKUAeLhtrroqu/QKbZcSziA8To82pxCBMHpQtJ4Y9GcRZxNBZSQxqT9y5JXZ18uFgkyilW02AIwqcGi1ZPFJKb5TSIsAlDPQeFAIKMXAhOyiTadXDgEJZAeBliiu3tEFnQOc1YjWKISHy0UmYmODNxOi4SuKJxIKWUgS6GPByukIJ6As6SRHoPUusPNsInXWSjhgswk4lZoWSnvDxESm9XFQkhXskeTcp7cyGuyX9YxRmSmWcBRjo8Evpv1o5YQ8GvaAFFEH5tUIghYEUdiLGxMSBATqniQUNowhkGBdeoyAv1TyU6r2DOJsYZwMcSb6U0gBkBLGScAQUhFMzCAApSauevByOYhh8gu+kOK6Vc4gd0UXK/InEcygMI/6MGEc0dJArhKM6Lg0w6fKJ0blNxHcROyP5RINug50C80kufESIS0T4KfSd2fAG6QYS30f8M2LYBzsPEOOo7Srhcu8mYuU4k/sjbBN1z6UI2kQ/wwZMJtjdpggDCE7iqPKojH8tyXdSKEicGbYKAYWriFH+FZlMq16eVFYcXdHpqAsTUxAm7+fEODKpUQwJUQYDTE6YFGLQ4LQOmkEMXVwqCMJ/AMjEQIAtSO8lFhROkSpiDBBMPBAGNfRw5gAhRBpyOSl97EWZjcSYeGIwRlL8Y+KXiUFabFhLemhvOgpIJPriKSFQhD0pbSPGJWtHYkHAGHUVCAGF4gySKpPhwAM9tA36kBjp7yMh0WMUQnZaCCgcKMmOy2StIjpBMnyTHWshh7NTpHwx8HH9XSbl4dLqXilfBFr1cFZAh8k7awmlLxCj3UrifxMPIbZHuKYXEwFlwDXEGJi4nAkllhN8OUUMvXpiHBjgSzWxoB4UEZdp0KsjxsDvQCzodYogb6IkQIg05HJS8xH1fEAM31EGA3M1sZx6UMKZDQ+QzlfEqAOMASg/uFDyOsIE/wVxKbEod5TiGPxy+oQSyO8hE94iycRERl3riQX+lyn+U2IcAJQHrIUkw0EAffpH4jZJYuCLQWHPSa169sqznBFwGYEgl0t4vsAJqvIQMY4UjkirnqM6OI8RYAQYAUaAEWAEGAFGgBFgBBgBRoARYAQYAUaAEWAEGAFGgBFgBBgBRoARYAQYAUaAEWAEGAFGgBFgBBgBRoARYAR8jMD/A8WADVncCPlOAAAAAElFTkSuQmCC;" vertex="1" parent="DVUXWdo4HBKXd4HaU4E6-1">
          <mxGeometry x="796.5" y="715" width="116.5" height="116.5" as="geometry" />
        </mxCell>
      </root>
    </mxGraphModel>
  </diagram>
</mxfile>
